<svg width="32" height="32" viewBox="0 0 32 32" fill="none" xmlns="http://www.w3.org/2000/svg">
<path d="M31.5239 6.58264C30.4106 7.07598 29.2146 7.40931 27.9573 7.55998C29.2399 6.79198 30.2239 5.57331 30.6879 4.12264C29.4879 4.83464 28.1586 5.35198 26.7439 5.62931C25.6106 4.42398 23.9973 3.66931 22.2106 3.66931C18.7813 3.66931 15.9999 6.45064 15.9999 9.88264C15.9999 10.368 16.0559 10.84 16.1599 11.296C10.9959 11.036 6.42127 8.56265 3.35727 4.80531C2.82393 5.72531 2.51727 6.79198 2.51727 7.92798C2.51727 10.0826 3.6146 11.9853 5.27993 13.0986C4.26127 13.0653 3.30393 12.7866 2.4666 12.3213V12.4013C2.4666 15.4106 4.6066 17.9213 7.44927 18.492C6.9266 18.6333 6.3786 18.708 5.81327 18.708C5.41327 18.708 5.0226 18.6706 4.64393 18.5986C5.4346 21.0653 7.72793 22.8626 10.4466 22.9106C8.31993 24.5773 5.64127 25.5706 2.73193 25.5706C2.2306 25.5706 1.73593 25.5413 1.24927 25.484C3.9986 27.248 7.2626 28.2746 10.7693 28.2746C22.1959 28.2746 28.4426 18.8106 28.4426 10.6026C28.4426 10.336 28.4359 10.0666 28.4239 9.79998C29.6373 8.92264 30.6906 7.83064 31.5213 6.58664L31.5239 6.58264Z" fill="#1DA1F2"/>
</svg>
